<svg width="1440" height="162" viewBox="0 0 1440 162" fill="none" xmlns="http://www.w3.org/2000/svg">
<rect x="0.5" y="0.5" width="1439" height="161" rx="3.5" stroke="#C4C1FA"/>
<path d="M124.827 71.16L125.507 68.68H115.043C113.972 68.6735 112.931 69.0386 112.098 69.7133C111.266 70.3879 110.693 71.3303 110.477 72.38L109.623 76.6234C109.536 77.0702 109.55 77.5309 109.663 77.9719C109.776 78.4129 109.986 78.8232 110.277 79.173C110.568 79.5228 110.934 79.8034 111.347 79.9943C111.761 80.1852 112.211 80.2816 112.667 80.2767H122.507L124.06 74.4767H119.857L119.09 76.6534H115.347C115.213 76.6577 115.08 76.6311 114.958 76.5755C114.836 76.5199 114.729 76.4369 114.645 76.3329C114.561 76.2289 114.502 76.1068 114.472 75.9762C114.443 75.8456 114.445 75.71 114.477 75.58L115.143 72.9567C115.192 72.7644 115.304 72.5941 115.461 72.4731C115.618 72.3522 115.812 72.2877 116.01 72.29H123.317C124.027 72.29 124.637 71.8234 124.823 71.1567M143.65 85.65L144.347 83.17H135.36C134.286 83.1634 133.242 83.5276 132.406 84.2011C131.569 84.8745 130.99 85.816 130.767 86.8667L129.91 91.1134C129.824 91.5615 129.839 92.0231 129.953 92.4648C130.068 92.9066 130.279 93.3172 130.572 93.6671C130.865 94.0169 131.232 94.2971 131.647 94.4873C132.062 94.6775 132.514 94.7729 132.97 94.7667H141.897L142.68 91.14H135.647C135.446 91.1449 135.25 91.0801 135.092 90.9567C134.934 90.8333 134.824 90.659 134.78 90.4634C134.754 90.3335 134.754 90.1998 134.78 90.07L135.46 87.4467C135.509 87.2538 135.621 87.0831 135.779 86.9621C135.937 86.8411 136.131 86.777 136.33 86.78H142.13C142.853 86.78 143.463 86.3134 143.633 85.6467L143.65 85.65Z" fill="#3B32D8"/>
<path fill-rule="evenodd" clip-rule="evenodd" d="M126.407 72.3766C126.652 71.3127 127.254 70.3651 128.114 69.6923C128.974 69.0194 130.038 68.6621 131.13 68.68H136.45C138.477 68.68 140 70.4466 139.607 72.3333L138.84 75.9266H130.58C130.396 75.9391 130.224 76.0209 130.098 76.1555C129.972 76.2901 129.903 76.4674 129.903 76.6516C129.903 76.8358 129.972 77.0132 130.098 77.1478C130.224 77.2824 130.396 77.3642 130.58 77.3766H138.55L137.957 80.2766H128.957C126.783 80.2766 125.157 78.39 125.58 76.36L126.407 72.3766ZM131.307 72.3033C131.307 71.8966 131.623 71.58 132.03 71.58H134.93C135.11 71.5972 135.277 71.6809 135.398 71.8147C135.52 71.9484 135.587 72.1226 135.587 72.3033C135.587 72.484 135.52 72.6582 135.398 72.7919C135.277 72.9257 135.11 73.0093 134.93 73.0266H132.03C131.935 73.0271 131.84 73.0087 131.752 72.9725C131.664 72.9364 131.584 72.8832 131.516 72.816C131.449 72.7487 131.395 72.6689 131.359 72.5809C131.322 72.4929 131.303 72.3986 131.303 72.3033" fill="#272190"/>
<path d="M142.9 72.3033L141.84 77.6666C141.776 77.9814 141.783 78.3065 141.859 78.6184C141.936 78.9304 142.08 79.2216 142.283 79.4711C142.485 79.7206 142.74 79.9222 143.029 80.0615C143.319 80.2007 143.635 80.2742 143.957 80.2766H150.623L151.593 76.65H146.523L147.477 72.3033H148.39C149.623 72.3033 151.117 71.1733 151.363 69.94L151.597 68.68H148.147L148.463 67.23H143.827L143.537 68.68H142.087L141.45 72.3033H142.9ZM125.1 83.1733H129.857L127.363 94.7666H122.61L125.1 83.1733ZM150.1 86.32L150.71 83.1733H146.39L144.117 94.7666H148.433L148.927 92.3033L150.377 90.8266L152.987 94.7666H157.97L153.737 88.2L158.84 83.1733C155.661 83.2403 152.592 84.3454 150.1 86.32ZM108.943 83.1733H113.277L112.407 87.52H113.783L118.073 83.1733H122.68L117.637 89.0866L121.16 94.7666H119.55C117.35 93.8666 114.477 92.13 113.81 89.52C113.477 89.5933 112.71 89.7833 112.19 89.9533C111.928 90.0528 111.679 90.1849 111.45 90.3466C111.13 90.5633 110.87 90.74 110.667 90.61C110.407 90.4333 110.277 89.9566 110.233 89.74C110.523 89.8833 111.133 90.13 111.217 89.9566C111.317 89.74 111.1 88.8566 110.233 88.8566C109.363 88.8566 108.927 90.29 108.927 91.49C108.927 92.69 109.797 93.0133 110.233 93.0133H110.32C110.913 93.0133 113.087 92.9867 113.797 94.4333L113.58 94.3466C112.768 93.9687 111.894 93.7428 111 93.68C110.295 93.6511 109.6 93.5046 108.943 93.2466C109.117 93.5366 109.637 94.1133 110.243 94.1133C110.91 94.1133 112.203 94.2033 112.857 94.7666H106.667L108.943 83.1733ZM173.043 84.68L173.333 83.1733H164.03C163.031 83.1847 162.078 83.5907 161.377 84.3026C160.676 85.0144 160.286 85.9745 160.29 86.9733V87.7666C160.29 89.1 161.303 90.2333 162.58 90.42L168.463 91.32H161.407C160.834 91.326 160.282 91.5367 159.851 91.9138C159.42 92.291 159.139 92.8098 159.057 93.3766L158.84 94.7666H168.68C170.507 94.7666 171.68 93.3033 171.797 91.4333L171.883 90.0566C171.97 88.7233 171.303 87.5633 170 87.49L165.477 87.2033C165.406 87.1938 165.341 87.1594 165.293 87.1062C165.246 87.0531 165.218 86.9847 165.217 86.9133C165.219 86.8372 165.251 86.7649 165.304 86.711C165.358 86.6572 165.431 86.6258 165.507 86.6233H170.753C171.303 86.6175 171.834 86.4203 172.254 86.0656C172.675 85.711 172.958 85.2211 173.057 84.68H173.043Z" fill="#3129B4"/>
<path d="M358.201 87H356.333V81.8438H351.068V87H349.193V75.5781H351.068V80.25H356.333V75.5781H358.201V87ZM368.693 82.6562C368.693 83.375 368.599 84.013 368.411 84.5703C368.224 85.1276 367.951 85.599 367.591 85.9844C367.232 86.3646 366.799 86.6562 366.294 86.8594C365.789 87.0573 365.219 87.1562 364.583 87.1562C363.99 87.1562 363.445 87.0573 362.951 86.8594C362.456 86.6562 362.026 86.3646 361.661 85.9844C361.302 85.599 361.023 85.1276 360.826 84.5703C360.628 84.013 360.529 83.375 360.529 82.6562C360.529 81.7031 360.693 80.8958 361.021 80.2344C361.354 79.5677 361.828 79.0599 362.443 78.7109C363.057 78.362 363.789 78.1875 364.638 78.1875C365.435 78.1875 366.138 78.362 366.747 78.7109C367.357 79.0599 367.833 79.5677 368.177 80.2344C368.521 80.901 368.693 81.7083 368.693 82.6562ZM362.419 82.6562C362.419 83.2865 362.495 83.8255 362.646 84.2734C362.802 84.7214 363.042 85.0651 363.365 85.3047C363.687 85.5391 364.104 85.6562 364.615 85.6562C365.125 85.6562 365.542 85.5391 365.865 85.3047C366.187 85.0651 366.424 84.7214 366.576 84.2734C366.727 83.8255 366.802 83.2865 366.802 82.6562C366.802 82.026 366.727 81.4922 366.576 81.0547C366.424 80.612 366.187 80.276 365.865 80.0469C365.542 79.8125 365.122 79.6953 364.607 79.6953C363.846 79.6953 363.292 79.9505 362.943 80.4609C362.594 80.9714 362.419 81.7031 362.419 82.6562ZM380.576 78.1875C381.544 78.1875 382.273 78.4375 382.763 78.9375C383.258 79.4375 383.505 80.2396 383.505 81.3438V87H381.669V81.6719C381.669 81.0156 381.542 80.5208 381.286 80.1875C381.031 79.8542 380.643 79.6875 380.122 79.6875C379.393 79.6875 378.867 79.9219 378.544 80.3906C378.227 80.8542 378.068 81.5286 378.068 82.4141V87H376.232V81.6719C376.232 81.2344 376.174 80.8698 376.06 80.5781C375.951 80.2812 375.781 80.0599 375.552 79.9141C375.323 79.763 375.034 79.6875 374.685 79.6875C374.18 79.6875 373.776 79.8021 373.474 80.0312C373.177 80.2604 372.964 80.599 372.833 81.0469C372.703 81.4896 372.638 82.0339 372.638 82.6797V87H370.802V78.3516H372.232L372.49 79.5156H372.591C372.768 79.2135 372.987 78.9661 373.247 78.7734C373.513 78.5755 373.807 78.4297 374.13 78.3359C374.453 78.237 374.789 78.1875 375.138 78.1875C375.784 78.1875 376.328 78.3021 376.771 78.5312C377.214 78.7552 377.544 79.099 377.763 79.5625H377.904C378.174 79.0938 378.552 78.7474 379.036 78.5234C379.521 78.2995 380.034 78.1875 380.576 78.1875ZM389.513 78.1875C390.284 78.1875 390.945 78.3464 391.497 78.6641C392.049 78.9818 392.474 79.4323 392.771 80.0156C393.068 80.599 393.216 81.2969 393.216 82.1094V83.0938H387.443C387.464 83.9323 387.687 84.5781 388.115 85.0312C388.547 85.4844 389.151 85.7109 389.927 85.7109C390.479 85.7109 390.974 85.6589 391.411 85.5547C391.854 85.4453 392.31 85.2865 392.779 85.0781V86.5703C392.346 86.7734 391.906 86.9219 391.458 87.0156C391.01 87.1094 390.474 87.1562 389.849 87.1562C389 87.1562 388.253 86.9922 387.607 86.6641C386.966 86.3307 386.464 85.8359 386.099 85.1797C385.74 84.5234 385.56 83.7083 385.56 82.7344C385.56 81.7656 385.724 80.9427 386.052 80.2656C386.38 79.5885 386.841 79.0729 387.435 78.7188C388.029 78.3646 388.721 78.1875 389.513 78.1875ZM389.513 79.5703C388.935 79.5703 388.466 79.7578 388.107 80.1328C387.753 80.5078 387.544 81.0573 387.482 81.7812H391.419C391.414 81.349 391.341 80.9661 391.201 80.6328C391.065 80.2995 390.857 80.0391 390.576 79.8516C390.299 79.6641 389.945 79.5703 389.513 79.5703Z" fill="#0D1216"/>
<path d="M437.672 87L436.555 83.8281H432.187L431.07 87H429.094L433.344 75.5312H435.422L439.664 87H437.672ZM436.07 82.2188L434.984 79.0938C434.943 78.9583 434.883 78.7682 434.805 78.5234C434.727 78.2734 434.648 78.0208 434.57 77.7656C434.492 77.5052 434.427 77.2865 434.375 77.1094C434.323 77.3229 434.258 77.5625 434.18 77.8281C434.107 78.0885 434.034 78.3333 433.961 78.5625C433.893 78.7917 433.841 78.9688 433.805 79.0938L432.711 82.2188H436.07ZM442.82 74.8438V77.7734C442.82 78.112 442.81 78.4453 442.789 78.7734C442.773 79.0964 442.758 79.349 442.742 79.5312H442.82C443.055 79.1562 443.38 78.8411 443.797 78.5859C444.219 78.3255 444.758 78.1953 445.414 78.1953C446.44 78.1953 447.266 78.5729 447.891 79.3281C448.516 80.0781 448.828 81.1901 448.828 82.6641C448.828 83.6432 448.685 84.4661 448.398 85.1328C448.112 85.7995 447.708 86.3047 447.187 86.6484C446.672 86.987 446.065 87.1562 445.367 87.1562C444.711 87.1562 444.18 87.0365 443.773 86.7969C443.372 86.5521 443.057 86.2682 442.828 85.9453H442.695L442.359 87H440.984V74.8438H442.82ZM444.93 79.6875C444.409 79.6875 443.995 79.7917 443.687 80C443.385 80.2083 443.167 80.5208 443.031 80.9375C442.896 81.349 442.825 81.8724 442.82 82.5078V82.6719C442.82 83.6354 442.971 84.3724 443.273 84.8828C443.581 85.3932 444.138 85.6484 444.945 85.6484C445.586 85.6484 446.078 85.3906 446.422 84.875C446.766 84.3542 446.937 83.6094 446.937 82.6406C446.937 81.6615 446.766 80.9245 446.422 80.4297C446.083 79.9349 445.586 79.6875 444.93 79.6875ZM458.609 82.6562C458.609 83.375 458.516 84.013 458.328 84.5703C458.141 85.1276 457.867 85.599 457.508 85.9844C457.148 86.3646 456.716 86.6562 456.211 86.8594C455.706 87.0573 455.135 87.1562 454.5 87.1562C453.906 87.1562 453.362 87.0573 452.867 86.8594C452.372 86.6562 451.943 86.3646 451.578 85.9844C451.219 85.599 450.94 85.1276 450.742 84.5703C450.544 84.013 450.445 83.375 450.445 82.6562C450.445 81.7031 450.609 80.8958 450.937 80.2344C451.271 79.5677 451.745 79.0599 452.359 78.7109C452.974 78.362 453.706 78.1875 454.555 78.1875C455.352 78.1875 456.055 78.362 456.664 78.7109C457.273 79.0599 457.75 79.5677 458.094 80.2344C458.437 80.901 458.609 81.7083 458.609 82.6562ZM452.336 82.6562C452.336 83.2865 452.411 83.8255 452.562 84.2734C452.719 84.7214 452.958 85.0651 453.281 85.3047C453.604 85.5391 454.021 85.6562 454.531 85.6562C455.042 85.6562 455.458 85.5391 455.781 85.3047C456.104 85.0651 456.341 84.7214 456.492 84.2734C456.643 83.8255 456.719 83.2865 456.719 82.6562C456.719 82.026 456.643 81.4922 456.492 81.0547C456.341 80.612 456.104 80.276 455.781 80.0469C455.458 79.8125 455.039 79.6953 454.523 79.6953C453.763 79.6953 453.208 79.9505 452.859 80.4609C452.51 80.9714 452.336 81.7031 452.336 82.6562ZM468.258 78.3516V87H466.812L466.562 85.8359H466.461C466.279 86.1328 466.047 86.3802 465.766 86.5781C465.484 86.7708 465.172 86.9141 464.828 87.0078C464.484 87.1068 464.122 87.1562 463.742 87.1562C463.091 87.1562 462.534 87.0469 462.07 86.8281C461.612 86.6042 461.26 86.2604 461.016 85.7969C460.771 85.3333 460.648 84.7344 460.648 84V78.3516H462.492V83.6562C462.492 84.3281 462.628 84.8307 462.898 85.1641C463.174 85.4974 463.602 85.6641 464.18 85.6641C464.737 85.6641 465.18 85.5495 465.508 85.3203C465.836 85.0911 466.068 84.7526 466.203 84.3047C466.344 83.8568 466.414 83.3073 466.414 82.6562V78.3516H468.258ZM474.109 85.6719C474.349 85.6719 474.586 85.651 474.82 85.6094C475.055 85.5625 475.268 85.5078 475.461 85.4453V86.8359C475.258 86.9245 474.995 87 474.672 87.0625C474.349 87.125 474.013 87.1562 473.664 87.1562C473.174 87.1562 472.734 87.0755 472.344 86.9141C471.953 86.7474 471.643 86.4635 471.414 86.0625C471.185 85.6615 471.07 85.1068 471.07 84.3984V79.75H469.891V78.9297L471.156 78.2812L471.758 76.4297H472.914V78.3516H475.391V79.75H472.914V84.375C472.914 84.8125 473.023 85.138 473.242 85.3516C473.461 85.5651 473.75 85.6719 474.109 85.6719Z" fill="#0D1216"/>
<path d="M508.336 75.5781C509.81 75.5781 510.886 75.8958 511.563 76.5312C512.24 77.1615 512.578 78.0312 512.578 79.1406C512.578 79.6406 512.503 80.1198 512.352 80.5781C512.201 81.0312 511.953 81.4349 511.609 81.7891C511.271 82.1432 510.818 82.4245 510.25 82.6328C509.682 82.8359 508.982 82.9375 508.149 82.9375H507.109V87H504.688V75.5781H508.336ZM508.211 77.5625H507.109V80.9531H507.906C508.359 80.9531 508.753 80.8932 509.086 80.7734C509.419 80.6536 509.677 80.4661 509.859 80.2109C510.042 79.9557 510.133 79.6276 510.133 79.2266C510.133 78.6641 509.977 78.2474 509.664 77.9766C509.352 77.7005 508.867 77.5625 508.211 77.5625ZM519.422 78.1016C519.542 78.1016 519.68 78.1094 519.836 78.125C519.997 78.1354 520.128 78.151 520.227 78.1719L520.047 80.4062C519.969 80.3802 519.857 80.362 519.711 80.3516C519.57 80.3359 519.448 80.3281 519.344 80.3281C519.037 80.3281 518.737 80.3672 518.445 80.4453C518.159 80.5234 517.901 80.651 517.672 80.8281C517.443 81 517.261 81.2292 517.125 81.5156C516.995 81.7969 516.93 82.1432 516.93 82.5547V87H514.547V78.2656H516.352L516.703 79.7344H516.82C516.992 79.4375 517.206 79.1667 517.461 78.9219C517.721 78.6719 518.016 78.474 518.344 78.3281C518.677 78.1771 519.037 78.1016 519.422 78.1016ZM529.75 82.6172C529.75 83.3464 529.651 83.9922 529.453 84.5547C529.261 85.1172 528.977 85.5938 528.602 85.9844C528.232 86.3698 527.784 86.6615 527.258 86.8594C526.737 87.0573 526.149 87.1562 525.492 87.1562C524.878 87.1562 524.313 87.0573 523.797 86.8594C523.287 86.6615 522.841 86.3698 522.461 85.9844C522.086 85.5938 521.794 85.1172 521.586 84.5547C521.383 83.9922 521.281 83.3464 521.281 82.6172C521.281 81.6484 521.453 80.8281 521.797 80.1562C522.141 79.4844 522.63 78.974 523.266 78.625C523.901 78.276 524.659 78.1016 525.539 78.1016C526.357 78.1016 527.081 78.276 527.711 78.625C528.346 78.974 528.844 79.4844 529.203 80.1562C529.568 80.8281 529.75 81.6484 529.75 82.6172ZM523.711 82.6172C523.711 83.1901 523.774 83.6719 523.899 84.0625C524.024 84.4531 524.219 84.7474 524.484 84.9453C524.75 85.1432 525.096 85.2422 525.524 85.2422C525.945 85.2422 526.287 85.1432 526.547 84.9453C526.813 84.7474 527.005 84.4531 527.125 84.0625C527.25 83.6719 527.313 83.1901 527.313 82.6172C527.313 82.0391 527.25 81.5599 527.125 81.1797C527.005 80.7943 526.813 80.5052 526.547 80.3125C526.281 80.1198 525.935 80.0234 525.508 80.0234C524.878 80.0234 524.419 80.2396 524.133 80.6719C523.852 81.1042 523.711 81.7526 523.711 82.6172ZM534.484 87.1562C533.511 87.1562 532.716 86.776 532.102 86.0156C531.492 85.25 531.188 84.1276 531.188 82.6484C531.188 81.1536 531.497 80.0234 532.117 79.2578C532.737 78.487 533.547 78.1016 534.547 78.1016C534.964 78.1016 535.331 78.1589 535.649 78.2734C535.966 78.388 536.24 78.5417 536.469 78.7344C536.703 78.9271 536.901 79.1432 537.063 79.3828H537.141C537.109 79.2161 537.07 78.9714 537.024 78.6484C536.982 78.3203 536.961 77.9844 536.961 77.6406V74.8438H539.352V87H537.524L537.063 85.8672H536.961C536.81 86.1068 536.62 86.3255 536.391 86.5234C536.167 86.7161 535.899 86.8698 535.586 86.9844C535.274 87.099 534.906 87.1562 534.484 87.1562ZM535.32 85.2578C535.971 85.2578 536.43 85.0651 536.695 84.6797C536.966 84.2891 537.109 83.7031 537.125 82.9219V82.6641C537.125 81.8151 536.995 81.1667 536.734 80.7188C536.474 80.2656 535.99 80.0391 535.281 80.0391C534.755 80.0391 534.344 80.2656 534.047 80.7188C533.75 81.1719 533.602 81.8255 533.602 82.6797C533.602 83.5339 533.75 84.1771 534.047 84.6094C534.349 85.0417 534.774 85.2578 535.32 85.2578ZM549.859 78.2656V87H548.031L547.711 85.8828H547.586C547.399 86.1797 547.164 86.4219 546.883 86.6094C546.602 86.7969 546.292 86.9349 545.953 87.0234C545.615 87.112 545.263 87.1562 544.899 87.1562C544.274 87.1562 543.729 87.0469 543.266 86.8281C542.802 86.6042 542.44 86.2578 542.18 85.7891C541.925 85.3203 541.797 84.7109 541.797 83.9609V78.2656H544.18V83.3672C544.18 83.9922 544.292 84.4635 544.516 84.7812C544.74 85.099 545.096 85.2578 545.586 85.2578C546.07 85.2578 546.451 85.1484 546.727 84.9297C547.003 84.7057 547.195 84.3802 547.305 83.9531C547.419 83.5208 547.477 82.9948 547.477 82.375V78.2656H549.859ZM555.906 87.1562C555.042 87.1562 554.305 87 553.695 86.6875C553.086 86.3698 552.622 85.8802 552.305 85.2188C551.987 84.5573 551.828 83.7109 551.828 82.6797C551.828 81.612 552.008 80.7422 552.367 80.0703C552.732 79.3932 553.234 78.8958 553.875 78.5781C554.521 78.2604 555.268 78.1016 556.117 78.1016C556.721 78.1016 557.242 78.1615 557.68 78.2812C558.122 78.3958 558.508 78.5339 558.836 78.6953L558.133 80.5391C557.758 80.388 557.409 80.2656 557.086 80.1719C556.763 80.0729 556.44 80.0234 556.117 80.0234C555.701 80.0234 555.354 80.1224 555.078 80.3203C554.802 80.513 554.596 80.8047 554.461 81.1953C554.326 81.5859 554.258 82.0755 554.258 82.6641C554.258 83.2422 554.331 83.7214 554.477 84.1016C554.622 84.4818 554.833 84.7656 555.109 84.9531C555.386 85.1354 555.721 85.2266 556.117 85.2266C556.612 85.2266 557.052 85.1615 557.438 85.0312C557.823 84.8958 558.198 84.7083 558.563 84.4688V86.5078C558.198 86.737 557.815 86.901 557.414 87C557.018 87.1042 556.516 87.1562 555.906 87.1562ZM564.274 85.2578C564.534 85.2578 564.787 85.2318 565.031 85.1797C565.281 85.1276 565.529 85.0625 565.774 84.9844V86.7578C565.518 86.8724 565.201 86.9661 564.82 87.0391C564.445 87.1172 564.034 87.1562 563.586 87.1562C563.065 87.1562 562.596 87.0729 562.18 86.9062C561.768 86.7344 561.443 86.4401 561.203 86.0234C560.969 85.6016 560.852 85.0156 560.852 84.2656V80.0547H559.711V79.0469L561.024 78.25L561.711 76.4062H563.234V78.2656H565.68V80.0547H563.234V84.2656C563.234 84.599 563.328 84.849 563.516 85.0156C563.708 85.1771 563.961 85.2578 564.274 85.2578ZM573.641 84.4062C573.641 85 573.5 85.5026 573.219 85.9141C572.943 86.3203 572.529 86.6302 571.977 86.8438C571.425 87.0521 570.737 87.1562 569.914 87.1562C569.305 87.1562 568.781 87.1172 568.344 87.0391C567.912 86.9609 567.474 86.8307 567.031 86.6484V84.6797C567.505 84.8932 568.013 85.0703 568.555 85.2109C569.102 85.3464 569.581 85.4141 569.992 85.4141C570.456 85.4141 570.787 85.3464 570.984 85.2109C571.188 85.0703 571.289 84.888 571.289 84.6641C571.289 84.5182 571.247 84.388 571.164 84.2734C571.086 84.1536 570.914 84.0208 570.649 83.875C570.383 83.724 569.966 83.5286 569.399 83.2891C568.852 83.0599 568.401 82.8281 568.047 82.5938C567.698 82.3594 567.438 82.0833 567.266 81.7656C567.099 81.4427 567.016 81.0339 567.016 80.5391C567.016 79.7318 567.328 79.125 567.953 78.7188C568.583 78.3073 569.425 78.1016 570.477 78.1016C571.018 78.1016 571.534 78.1562 572.024 78.2656C572.518 78.375 573.026 78.5495 573.547 78.7891L572.828 80.5078C572.396 80.3203 571.987 80.1667 571.602 80.0469C571.221 79.9271 570.833 79.8672 570.438 79.8672C570.089 79.8672 569.826 79.9141 569.649 80.0078C569.471 80.1016 569.383 80.2448 569.383 80.4375C569.383 80.5781 569.427 80.7031 569.516 80.8125C569.609 80.9219 569.787 81.0443 570.047 81.1797C570.313 81.3099 570.701 81.4792 571.211 81.6875C571.706 81.8906 572.136 82.1042 572.5 82.3281C572.865 82.5469 573.146 82.8203 573.344 83.1484C573.542 83.4714 573.641 83.8906 573.641 84.4062Z" fill="#4137F0"/>
<path d="M610.357 75.5781H613.755C615.229 75.5781 616.341 75.7917 617.091 76.2188C617.841 76.6458 618.216 77.3828 618.216 78.4297C618.216 78.8672 618.138 79.263 617.982 79.6172C617.831 79.9661 617.609 80.2552 617.318 80.4844C617.026 80.7083 616.667 80.8594 616.24 80.9375V81.0156C616.682 81.0938 617.075 81.2318 617.419 81.4297C617.768 81.6276 618.042 81.9115 618.24 82.2812C618.443 82.651 618.544 83.1302 618.544 83.7188C618.544 84.4167 618.378 85.0104 618.044 85.5C617.716 85.9896 617.245 86.362 616.63 86.6172C616.021 86.8724 615.297 87 614.458 87H610.357V75.5781ZM612.232 80.2891H614.029C614.878 80.2891 615.466 80.151 615.794 79.875C616.122 79.599 616.286 79.1953 616.286 78.6641C616.286 78.1224 616.091 77.7318 615.7 77.4922C615.315 77.2526 614.7 77.1328 613.857 77.1328H612.232V80.2891ZM612.232 81.8047V85.4297H614.208C615.083 85.4297 615.698 85.2604 616.052 84.9219C616.406 84.5833 616.583 84.125 616.583 83.5469C616.583 83.1927 616.503 82.8854 616.341 82.625C616.185 82.3646 615.927 82.1641 615.568 82.0234C615.208 81.8776 614.724 81.8047 614.115 81.8047H612.232ZM622.56 87H620.716V74.8438H622.56V87ZM632.841 82.6562C632.841 83.375 632.747 84.013 632.56 84.5703C632.372 85.1276 632.099 85.599 631.74 85.9844C631.38 86.3646 630.948 86.6562 630.443 86.8594C629.937 87.0573 629.367 87.1562 628.732 87.1562C628.138 87.1562 627.594 87.0573 627.099 86.8594C626.604 86.6562 626.174 86.3646 625.81 85.9844C625.45 85.599 625.172 85.1276 624.974 84.5703C624.776 84.013 624.677 83.375 624.677 82.6562C624.677 81.7031 624.841 80.8958 625.169 80.2344C625.503 79.5677 625.977 79.0599 626.591 78.7109C627.206 78.362 627.937 78.1875 628.786 78.1875C629.583 78.1875 630.286 78.362 630.896 78.7109C631.505 79.0599 631.982 79.5677 632.325 80.2344C632.669 80.901 632.841 81.7083 632.841 82.6562ZM626.568 82.6562C626.568 83.2865 626.643 83.8255 626.794 84.2734C626.95 84.7214 627.19 85.0651 627.513 85.3047C627.836 85.5391 628.253 85.6562 628.763 85.6562C629.273 85.6562 629.69 85.5391 630.013 85.3047C630.336 85.0651 630.573 84.7214 630.724 84.2734C630.875 83.8255 630.95 83.2865 630.95 82.6562C630.95 82.026 630.875 81.4922 630.724 81.0547C630.573 80.612 630.336 80.276 630.013 80.0469C629.69 79.8125 629.271 79.6953 628.755 79.6953C627.995 79.6953 627.44 79.9505 627.091 80.4609C626.742 80.9714 626.568 81.7031 626.568 82.6562ZM637.419 90.8438C636.247 90.8438 635.349 90.6328 634.724 90.2109C634.099 89.7891 633.786 89.1979 633.786 88.4375C633.786 87.9062 633.953 87.4557 634.286 87.0859C634.62 86.7214 635.096 86.4688 635.716 86.3281C635.482 86.224 635.279 86.0625 635.107 85.8438C634.94 85.6198 634.857 85.3724 634.857 85.1016C634.857 84.7786 634.948 84.5026 635.13 84.2734C635.312 84.0443 635.586 83.8229 635.95 83.6094C635.497 83.4167 635.133 83.1042 634.857 82.6719C634.586 82.2344 634.45 81.7214 634.45 81.1328C634.45 80.5078 634.583 79.9766 634.849 79.5391C635.115 79.0964 635.503 78.7604 636.013 78.5312C636.523 78.2969 637.141 78.1797 637.865 78.1797C638.021 78.1797 638.19 78.1901 638.372 78.2109C638.56 78.2266 638.732 78.2474 638.888 78.2734C639.049 78.2943 639.172 78.3177 639.255 78.3438H642.247V79.3672L640.779 79.6406C640.919 79.8385 641.031 80.0651 641.115 80.3203C641.198 80.5703 641.24 80.8438 641.24 81.1406C641.24 82.0365 640.93 82.7422 640.31 83.2578C639.695 83.7682 638.846 84.0234 637.763 84.0234C637.503 84.013 637.25 83.9922 637.005 83.9609C636.818 84.0755 636.674 84.2031 636.575 84.3438C636.477 84.4792 636.427 84.6328 636.427 84.8047C636.427 84.9453 636.477 85.0599 636.575 85.1484C636.674 85.2318 636.82 85.2943 637.013 85.3359C637.211 85.3776 637.45 85.3984 637.732 85.3984H639.224C640.172 85.3984 640.896 85.599 641.396 86C641.896 86.401 642.146 86.9896 642.146 87.7656C642.146 88.75 641.74 89.5078 640.927 90.0391C640.115 90.5755 638.945 90.8438 637.419 90.8438ZM637.49 89.5547C638.13 89.5547 638.669 89.4922 639.107 89.3672C639.544 89.2422 639.875 89.0625 640.099 88.8281C640.323 88.599 640.435 88.3255 640.435 88.0078C640.435 87.7266 640.365 87.5104 640.224 87.3594C640.083 87.2083 639.872 87.1042 639.591 87.0469C639.31 86.9896 638.961 86.9609 638.544 86.9609H637.185C636.846 86.9609 636.547 87.013 636.286 87.1172C636.026 87.2266 635.823 87.3828 635.677 87.5859C635.536 87.7891 635.466 88.0339 635.466 88.3203C635.466 88.7161 635.641 89.0208 635.99 89.2344C636.344 89.4479 636.844 89.5547 637.49 89.5547ZM637.849 82.8203C638.385 82.8203 638.784 82.6745 639.044 82.3828C639.305 82.0859 639.435 81.6693 639.435 81.1328C639.435 80.5495 639.299 80.112 639.029 79.8203C638.763 79.5286 638.367 79.3828 637.841 79.3828C637.325 79.3828 636.932 79.5312 636.661 79.8281C636.396 80.125 636.263 80.5651 636.263 81.1484C636.263 81.6745 636.396 82.0859 636.661 82.3828C636.932 82.6745 637.328 82.8203 637.849 82.8203ZM649.638 84.5312C649.638 85.099 649.5 85.5781 649.224 85.9688C648.948 86.3594 648.544 86.6562 648.013 86.8594C647.487 87.0573 646.841 87.1562 646.075 87.1562C645.471 87.1562 644.95 87.112 644.513 87.0234C644.081 86.9401 643.672 86.8099 643.286 86.6328V85.0469C643.698 85.2396 644.159 85.4062 644.669 85.5469C645.185 85.6875 645.672 85.7578 646.13 85.7578C646.734 85.7578 647.169 85.6641 647.435 85.4766C647.7 85.2839 647.833 85.0286 647.833 84.7109C647.833 84.5234 647.779 84.3568 647.669 84.2109C647.565 84.0599 647.367 83.9062 647.075 83.75C646.789 83.5885 646.367 83.3958 645.81 83.1719C645.263 82.9531 644.802 82.7344 644.427 82.5156C644.052 82.2969 643.768 82.0339 643.575 81.7266C643.383 81.4141 643.286 81.0156 643.286 80.5312C643.286 79.7656 643.588 79.1849 644.193 78.7891C644.802 78.388 645.607 78.1875 646.607 78.1875C647.138 78.1875 647.638 78.2422 648.107 78.3516C648.581 78.4557 649.044 78.6094 649.497 78.8125L648.919 80.1953C648.529 80.0234 648.135 79.8828 647.74 79.7734C647.349 79.6589 646.95 79.6016 646.544 79.6016C646.07 79.6016 645.708 79.6745 645.458 79.8203C645.213 79.9661 645.091 80.1745 645.091 80.4453C645.091 80.6484 645.151 80.8203 645.271 80.9609C645.391 81.1016 645.596 81.2422 645.888 81.3828C646.185 81.5234 646.596 81.6979 647.122 81.9062C647.638 82.1042 648.083 82.3125 648.458 82.5312C648.838 82.7448 649.13 83.0078 649.333 83.3203C649.536 83.6328 649.638 84.0365 649.638 84.5312Z" fill="#0D1216"/>
<rect x="825.5" y="64.5" width="273" height="33" rx="11.5" fill="#F5F5F5"/>
<rect x="825.5" y="64.5" width="273" height="33" rx="11.5" stroke="#3129B4"/>
<path opacity="0.5" d="M860.436 76.636L858.012 85H856.788L854.844 78.268L852.828 85L851.616 85.012L849.276 76.636H850.44L852.264 83.728L854.28 76.636H855.504L857.424 83.704L859.26 76.636H860.436ZM864.895 78.304C865.391 78.304 865.839 78.412 866.239 78.628C866.639 78.836 866.951 79.152 867.175 79.576C867.407 80 867.523 80.516 867.523 81.124V85H866.443V81.28C866.443 80.624 866.279 80.124 865.951 79.78C865.623 79.428 865.175 79.252 864.607 79.252C864.031 79.252 863.571 79.432 863.227 79.792C862.891 80.152 862.723 80.676 862.723 81.364V85H861.631V76.12H862.723V79.36C862.939 79.024 863.235 78.764 863.611 78.58C863.995 78.396 864.423 78.304 864.895 78.304ZM868.899 81.688C868.899 81.016 869.035 80.428 869.307 79.924C869.579 79.412 869.951 79.016 870.423 78.736C870.903 78.456 871.435 78.316 872.019 78.316C872.595 78.316 873.095 78.44 873.519 78.688C873.943 78.936 874.259 79.248 874.467 79.624V78.424H875.571V85H874.467V83.776C874.251 84.16 873.927 84.48 873.495 84.736C873.071 84.984 872.575 85.108 872.007 85.108C871.423 85.108 870.895 84.964 870.423 84.676C869.951 84.388 869.579 83.984 869.307 83.464C869.035 82.944 868.899 82.352 868.899 81.688ZM874.467 81.7C874.467 81.204 874.367 80.772 874.167 80.404C873.967 80.036 873.695 79.756 873.351 79.564C873.015 79.364 872.643 79.264 872.235 79.264C871.827 79.264 871.455 79.36 871.119 79.552C870.783 79.744 870.515 80.024 870.315 80.392C870.115 80.76 870.015 81.192 870.015 81.688C870.015 82.192 870.115 82.632 870.315 83.008C870.515 83.376 870.783 83.66 871.119 83.86C871.455 84.052 871.827 84.148 872.235 84.148C872.643 84.148 873.015 84.052 873.351 83.86C873.695 83.66 873.967 83.376 874.167 83.008C874.367 82.632 874.467 82.196 874.467 81.7ZM878.748 79.324V83.2C878.748 83.52 878.816 83.748 878.952 83.884C879.088 84.012 879.324 84.076 879.66 84.076H880.464V85H879.48C878.872 85 878.416 84.86 878.112 84.58C877.808 84.3 877.656 83.84 877.656 83.2V79.324H876.804V78.424H877.656V76.768H878.748V78.424H880.464V79.324H878.748ZM884.579 81.688C884.579 81.016 884.715 80.428 884.987 79.924C885.259 79.412 885.631 79.016 886.103 78.736C886.583 78.456 887.115 78.316 887.699 78.316C888.275 78.316 888.775 78.44 889.199 78.688C889.623 78.936 889.939 79.248 890.147 79.624V78.424H891.251V85H890.147V83.776C889.931 84.16 889.607 84.48 889.175 84.736C888.751 84.984 888.255 85.108 887.687 85.108C887.103 85.108 886.575 84.964 886.103 84.676C885.631 84.388 885.259 83.984 884.987 83.464C884.715 82.944 884.579 82.352 884.579 81.688ZM890.147 81.7C890.147 81.204 890.047 80.772 889.847 80.404C889.647 80.036 889.375 79.756 889.031 79.564C888.695 79.364 888.323 79.264 887.915 79.264C887.507 79.264 887.135 79.36 886.799 79.552C886.463 79.744 886.195 80.024 885.995 80.392C885.795 80.76 885.695 81.192 885.695 81.688C885.695 82.192 885.795 82.632 885.995 83.008C886.195 83.376 886.463 83.66 886.799 83.86C887.135 84.052 887.507 84.148 887.915 84.148C888.323 84.148 888.695 84.052 889.031 83.86C889.375 83.66 889.647 83.376 889.847 83.008C890.047 82.632 890.147 82.196 890.147 81.7ZM894.188 79.492C894.38 79.116 894.652 78.824 895.004 78.616C895.364 78.408 895.8 78.304 896.312 78.304V79.432H896.024C894.8 79.432 894.188 80.096 894.188 81.424V85H893.096V78.424H894.188V79.492ZM903.572 81.46C903.572 81.668 903.56 81.888 903.536 82.12H898.28C898.32 82.768 898.54 83.276 898.94 83.644C899.348 84.004 899.84 84.184 900.416 84.184C900.888 84.184 901.28 84.076 901.592 83.86C901.912 83.636 902.136 83.34 902.264 82.972H903.44C903.264 83.604 902.912 84.12 902.384 84.52C901.856 84.912 901.2 85.108 900.416 85.108C899.792 85.108 899.232 84.968 898.736 84.688C898.248 84.408 897.864 84.012 897.584 83.5C897.304 82.98 897.164 82.38 897.164 81.7C897.164 81.02 897.3 80.424 897.572 79.912C897.844 79.4 898.224 79.008 898.712 78.736C899.208 78.456 899.776 78.316 900.416 78.316C901.04 78.316 901.592 78.452 902.072 78.724C902.552 78.996 902.92 79.372 903.176 79.852C903.44 80.324 903.572 80.86 903.572 81.46ZM902.444 81.232C902.444 80.816 902.352 80.46 902.168 80.164C901.984 79.86 901.732 79.632 901.412 79.48C901.1 79.32 900.752 79.24 900.368 79.24C899.816 79.24 899.344 79.416 898.952 79.768C898.568 80.12 898.348 80.608 898.292 81.232H902.444ZM913.877 78.424L909.917 88.096H908.789L910.085 84.928L907.433 78.424H908.645L910.709 83.752L912.749 78.424H913.877ZM917.843 85.108C917.227 85.108 916.667 84.968 916.163 84.688C915.667 84.408 915.275 84.012 914.987 83.5C914.707 82.98 914.567 82.38 914.567 81.7C914.567 81.028 914.711 80.436 914.999 79.924C915.295 79.404 915.695 79.008 916.199 78.736C916.703 78.456 917.267 78.316 917.891 78.316C918.515 78.316 919.079 78.456 919.583 78.736C920.087 79.008 920.483 79.4 920.771 79.912C921.067 80.424 921.215 81.02 921.215 81.7C921.215 82.38 921.063 82.98 920.759 83.5C920.463 84.012 920.059 84.408 919.547 84.688C919.035 84.968 918.467 85.108 917.843 85.108ZM917.843 84.148C918.235 84.148 918.603 84.056 918.947 83.872C919.291 83.688 919.567 83.412 919.775 83.044C919.991 82.676 920.099 82.228 920.099 81.7C920.099 81.172 919.995 80.724 919.787 80.356C919.579 79.988 919.307 79.716 918.971 79.54C918.635 79.356 918.271 79.264 917.879 79.264C917.479 79.264 917.111 79.356 916.775 79.54C916.447 79.716 916.183 79.988 915.983 80.356C915.783 80.724 915.683 81.172 915.683 81.7C915.683 82.236 915.779 82.688 915.971 83.056C916.171 83.424 916.435 83.7 916.763 83.884C917.091 84.06 917.451 84.148 917.843 84.148ZM928.483 78.424V85H927.391V84.028C927.183 84.364 926.891 84.628 926.515 84.82C926.147 85.004 925.739 85.096 925.291 85.096C924.779 85.096 924.319 84.992 923.911 84.784C923.503 84.568 923.179 84.248 922.939 83.824C922.707 83.4 922.591 82.884 922.591 82.276V78.424H923.671V82.132C923.671 82.78 923.835 83.28 924.163 83.632C924.491 83.976 924.939 84.148 925.507 84.148C926.091 84.148 926.551 83.968 926.887 83.608C927.223 83.248 927.391 82.724 927.391 82.036V78.424H928.483ZM934.618 76.12V85H933.526V76.12H934.618ZM939.347 85.108C938.731 85.108 938.171 84.968 937.667 84.688C937.171 84.408 936.779 84.012 936.491 83.5C936.211 82.98 936.071 82.38 936.071 81.7C936.071 81.028 936.215 80.436 936.503 79.924C936.799 79.404 937.199 79.008 937.703 78.736C938.207 78.456 938.771 78.316 939.395 78.316C940.019 78.316 940.583 78.456 941.087 78.736C941.591 79.008 941.987 79.4 942.275 79.912C942.571 80.424 942.719 81.02 942.719 81.7C942.719 82.38 942.567 82.98 942.263 83.5C941.967 84.012 941.563 84.408 941.051 84.688C940.539 84.968 939.971 85.108 939.347 85.108ZM939.347 84.148C939.739 84.148 940.107 84.056 940.451 83.872C940.795 83.688 941.071 83.412 941.279 83.044C941.495 82.676 941.603 82.228 941.603 81.7C941.603 81.172 941.499 80.724 941.291 80.356C941.083 79.988 940.811 79.716 940.475 79.54C940.139 79.356 939.775 79.264 939.383 79.264C938.983 79.264 938.615 79.356 938.279 79.54C937.951 79.716 937.687 79.988 937.487 80.356C937.287 80.724 937.187 81.172 937.187 81.7C937.187 82.236 937.283 82.688 937.475 83.056C937.675 83.424 937.939 83.7 938.267 83.884C938.595 84.06 938.955 84.148 939.347 84.148ZM947.022 85.108C946.406 85.108 945.846 84.968 945.342 84.688C944.846 84.408 944.454 84.012 944.166 83.5C943.886 82.98 943.746 82.38 943.746 81.7C943.746 81.028 943.89 80.436 944.178 79.924C944.474 79.404 944.874 79.008 945.378 78.736C945.882 78.456 946.446 78.316 947.07 78.316C947.694 78.316 948.258 78.456 948.762 78.736C949.266 79.008 949.662 79.4 949.95 79.912C950.246 80.424 950.394 81.02 950.394 81.7C950.394 82.38 950.242 82.98 949.938 83.5C949.642 84.012 949.238 84.408 948.726 84.688C948.214 84.968 947.646 85.108 947.022 85.108ZM947.022 84.148C947.414 84.148 947.782 84.056 948.126 83.872C948.47 83.688 948.746 83.412 948.954 83.044C949.17 82.676 949.278 82.228 949.278 81.7C949.278 81.172 949.174 80.724 948.966 80.356C948.758 79.988 948.486 79.716 948.15 79.54C947.814 79.356 947.45 79.264 947.058 79.264C946.658 79.264 946.29 79.356 945.954 79.54C945.626 79.716 945.362 79.988 945.162 80.356C944.962 80.724 944.862 81.172 944.862 81.7C944.862 82.236 944.958 82.688 945.15 83.056C945.35 83.424 945.614 83.7 945.942 83.884C946.27 84.06 946.63 84.148 947.022 84.148ZM955.502 85L952.922 82.096V85H951.83V76.12H952.922V81.34L955.454 78.424H956.978L953.882 81.7L956.99 85H955.502ZM958.57 77.356C958.362 77.356 958.186 77.284 958.042 77.14C957.898 76.996 957.826 76.82 957.826 76.612C957.826 76.404 957.898 76.228 958.042 76.084C958.186 75.94 958.362 75.868 958.57 75.868C958.77 75.868 958.938 75.94 959.074 76.084C959.218 76.228 959.29 76.404 959.29 76.612C959.29 76.82 959.218 76.996 959.074 77.14C958.938 77.284 958.77 77.356 958.57 77.356ZM959.098 78.424V85H958.006V78.424H959.098ZM964.163 78.304C964.963 78.304 965.611 78.548 966.107 79.036C966.603 79.516 966.851 80.212 966.851 81.124V85H965.771V81.28C965.771 80.624 965.607 80.124 965.279 79.78C964.951 79.428 964.503 79.252 963.935 79.252C963.359 79.252 962.899 79.432 962.555 79.792C962.219 80.152 962.051 80.676 962.051 81.364V85H960.959V78.424H962.051V79.36C962.267 79.024 962.559 78.764 962.927 78.58C963.303 78.396 963.715 78.304 964.163 78.304ZM971.347 78.316C971.915 78.316 972.411 78.44 972.835 78.688C973.267 78.936 973.587 79.248 973.795 79.624V78.424H974.899V85.144C974.899 85.744 974.771 86.276 974.515 86.74C974.259 87.212 973.891 87.58 973.411 87.844C972.939 88.108 972.387 88.24 971.755 88.24C970.891 88.24 970.171 88.036 969.595 87.628C969.019 87.22 968.679 86.664 968.575 85.96H969.655C969.775 86.36 970.023 86.68 970.399 86.92C970.775 87.168 971.227 87.292 971.755 87.292C972.355 87.292 972.843 87.104 973.219 86.728C973.603 86.352 973.795 85.824 973.795 85.144V83.764C973.579 84.148 973.259 84.468 972.835 84.724C972.411 84.98 971.915 85.108 971.347 85.108C970.763 85.108 970.231 84.964 969.751 84.676C969.279 84.388 968.907 83.984 968.635 83.464C968.363 82.944 968.227 82.352 968.227 81.688C968.227 81.016 968.363 80.428 968.635 79.924C968.907 79.412 969.279 79.016 969.751 78.736C970.231 78.456 970.763 78.316 971.347 78.316ZM973.795 81.7C973.795 81.204 973.695 80.772 973.495 80.404C973.295 80.036 973.023 79.756 972.679 79.564C972.343 79.364 971.971 79.264 971.563 79.264C971.155 79.264 970.783 79.36 970.447 79.552C970.111 79.744 969.843 80.024 969.643 80.392C969.443 80.76 969.343 81.192 969.343 81.688C969.343 82.192 969.443 82.632 969.643 83.008C969.843 83.376 970.111 83.66 970.447 83.86C970.783 84.052 971.155 84.148 971.563 84.148C971.971 84.148 972.343 84.052 972.679 83.86C973.023 83.66 973.295 83.376 973.495 83.008C973.695 82.632 973.795 82.196 973.795 81.7ZM982.62 79.324H981.24V85H980.148V79.324H979.296V78.424H980.148V77.956C980.148 77.22 980.336 76.684 980.712 76.348C981.096 76.004 981.708 75.832 982.548 75.832V76.744C982.068 76.744 981.728 76.84 981.528 77.032C981.336 77.216 981.24 77.524 981.24 77.956V78.424H982.62V79.324ZM986.761 85.108C986.145 85.108 985.585 84.968 985.081 84.688C984.585 84.408 984.193 84.012 983.905 83.5C983.625 82.98 983.485 82.38 983.485 81.7C983.485 81.028 983.629 80.436 983.917 79.924C984.213 79.404 984.613 79.008 985.117 78.736C985.621 78.456 986.185 78.316 986.809 78.316C987.433 78.316 987.997 78.456 988.501 78.736C989.005 79.008 989.401 79.4 989.689 79.912C989.985 80.424 990.133 81.02 990.133 81.7C990.133 82.38 989.981 82.98 989.677 83.5C989.381 84.012 988.977 84.408 988.465 84.688C987.953 84.968 987.385 85.108 986.761 85.108ZM986.761 84.148C987.153 84.148 987.521 84.056 987.865 83.872C988.209 83.688 988.485 83.412 988.693 83.044C988.909 82.676 989.017 82.228 989.017 81.7C989.017 81.172 988.913 80.724 988.705 80.356C988.497 79.988 988.225 79.716 987.889 79.54C987.553 79.356 987.189 79.264 986.797 79.264C986.397 79.264 986.029 79.356 985.693 79.54C985.365 79.716 985.101 79.988 984.901 80.356C984.701 80.724 984.601 81.172 984.601 81.7C984.601 82.236 984.697 82.688 984.889 83.056C985.089 83.424 985.353 83.7 985.681 83.884C986.009 84.06 986.369 84.148 986.761 84.148ZM992.661 79.492C992.853 79.116 993.125 78.824 993.477 78.616C993.837 78.408 994.273 78.304 994.785 78.304V79.432H994.497C993.273 79.432 992.661 80.096 992.661 81.424V85H991.569V78.424H992.661V79.492ZM998.181 76.528C998.973 76.528 999.613 76.752 1000.1 77.2C1000.59 77.648 1000.83 78.248 1000.83 79C1000.83 79.84 1000.57 80.464 1000.05 80.872C999.533 81.272 998.829 81.472 997.941 81.472L997.905 82.612H996.957L996.909 80.716H997.257C998.049 80.716 998.669 80.596 999.117 80.356C999.565 80.116 999.789 79.664 999.789 79C999.789 78.52 999.645 78.14 999.357 77.86C999.069 77.58 998.681 77.44 998.193 77.44C997.697 77.44 997.305 77.576 997.017 77.848C996.737 78.112 996.597 78.476 996.597 78.94H995.565C995.565 78.46 995.673 78.04 995.889 77.68C996.105 77.312 996.409 77.028 996.801 76.828C997.201 76.628 997.661 76.528 998.181 76.528ZM997.425 85.072C997.217 85.072 997.041 85 996.897 84.856C996.753 84.712 996.681 84.536 996.681 84.328C996.681 84.12 996.753 83.944 996.897 83.8C997.041 83.656 997.217 83.584 997.425 83.584C997.625 83.584 997.793 83.656 997.929 83.8C998.073 83.944 998.145 84.12 998.145 84.328C998.145 84.536 998.073 84.712 997.929 84.856C997.793 85 997.625 85.072 997.425 85.072Z" fill="#9DA3A9"/>
<path d="M1083 90.0002L1078.66 85.6572M1078.66 85.6572C1079.4 84.9143 1079.99 84.0324 1080.39 83.0618C1080.79 82.0911 1081 81.0508 1081 80.0002C1081 78.9496 1080.79 77.9093 1080.39 76.9387C1079.99 75.968 1079.4 75.0861 1078.66 74.3432C1077.91 73.6003 1077.03 73.011 1076.06 72.609C1075.09 72.2069 1074.05 72 1073 72C1071.95 72 1070.91 72.2069 1069.94 72.609C1068.97 73.011 1068.09 73.6003 1067.34 74.3432C1065.84 75.8435 1065 77.8784 1065 80.0002C1065 82.122 1065.84 84.1569 1067.34 85.6572C1068.84 87.1575 1070.88 88.0004 1073 88.0004C1075.12 88.0004 1077.16 87.1575 1078.66 85.6572Z" stroke="black" stroke-width="1.5" stroke-linecap="round" stroke-linejoin="round"/>
<g clip-path="url(#clip0_43_246)">
<path d="M1138 72C1135.24 72 1133 74.2367 1133 76.9962C1133 79.2238 1133.88 84.5107 1142.49 89.8551C1142.64 89.9499 1142.82 90 1143 90C1143.18 90 1143.36 89.9499 1143.51 89.8551C1152.12 84.5107 1153 79.2238 1153 76.9962C1153 74.2367 1150.76 72 1148 72C1145.24 72 1143 75.028 1143 75.028C1143 75.028 1140.76 72 1138 72Z" stroke="black" stroke-width="1.5" stroke-linecap="round" stroke-linejoin="round"/>
<circle cx="1149" cy="72.5" r="4" fill="#DB4444"/>
<path d="M1149.32 73.5398C1149.1 73.5398 1148.91 73.5043 1148.74 73.4332C1148.57 73.3613 1148.43 73.2633 1148.34 73.1392C1148.24 73.0152 1148.19 72.8745 1148.19 72.7173C1148.19 72.5961 1148.22 72.4848 1148.28 72.3835C1148.33 72.2812 1148.41 72.1965 1148.5 72.1293C1148.6 72.0611 1148.71 72.0175 1148.82 71.9986V71.9787C1148.67 71.9474 1148.54 71.8722 1148.45 71.7528C1148.35 71.6326 1148.3 71.4929 1148.3 71.3338C1148.3 71.1832 1148.35 71.0492 1148.43 70.9318C1148.52 70.8134 1148.64 70.7206 1148.8 70.6534C1148.95 70.5852 1149.12 70.5511 1149.32 70.5511C1149.52 70.5511 1149.69 70.5852 1149.85 70.6534C1150 70.7216 1150.12 70.8149 1150.21 70.9332C1150.3 71.0507 1150.34 71.1842 1150.34 71.3338C1150.34 71.4938 1150.29 71.6335 1150.19 71.7528C1150.1 71.8722 1149.97 71.9474 1149.82 71.9787V71.9986C1149.94 72.0175 1150.04 72.0611 1150.14 72.1293C1150.23 72.1965 1150.31 72.2812 1150.36 72.3835C1150.42 72.4848 1150.45 72.5961 1150.45 72.7173C1150.45 72.8745 1150.4 73.0152 1150.3 73.1392C1150.21 73.2633 1150.07 73.3613 1149.9 73.4332C1149.73 73.5043 1149.54 73.5398 1149.32 73.5398ZM1149.32 73.0881C1149.42 73.0881 1149.5 73.0705 1149.58 73.0355C1149.65 72.9995 1149.71 72.9503 1149.75 72.8878C1149.79 72.8243 1149.81 72.7514 1149.81 72.669C1149.81 72.5848 1149.79 72.5104 1149.75 72.446C1149.7 72.3807 1149.65 72.3295 1149.57 72.2926C1149.5 72.2547 1149.42 72.2358 1149.32 72.2358C1149.23 72.2358 1149.14 72.2547 1149.07 72.2926C1149 72.3295 1148.94 72.3807 1148.89 72.446C1148.85 72.5104 1148.83 72.5848 1148.83 72.669C1148.83 72.7514 1148.85 72.8243 1148.89 72.8878C1148.93 72.9503 1148.99 72.9995 1149.07 73.0355C1149.14 73.0705 1149.22 73.0881 1149.32 73.0881ZM1149.32 71.7884C1149.4 71.7884 1149.47 71.7718 1149.54 71.7386C1149.6 71.7055 1149.65 71.6596 1149.69 71.6009C1149.72 71.5421 1149.74 71.4744 1149.74 71.3977C1149.74 71.322 1149.72 71.2557 1149.69 71.1989C1149.65 71.1411 1149.6 71.0961 1149.54 71.0639C1149.48 71.0308 1149.4 71.0142 1149.32 71.0142C1149.24 71.0142 1149.17 71.0308 1149.1 71.0639C1149.04 71.0961 1148.99 71.1411 1148.95 71.1989C1148.92 71.2557 1148.9 71.322 1148.9 71.3977C1148.9 71.4744 1148.92 71.5421 1148.95 71.6009C1148.99 71.6596 1149.04 71.7055 1149.1 71.7386C1149.17 71.7718 1149.24 71.7884 1149.32 71.7884Z" fill="white"/>
</g>
<path d="M1192.53 83.4697L1190.5 81.4395V78.75C1190.5 76.8914 1189.81 75.0996 1188.56 73.7212C1187.31 72.3428 1185.6 71.4757 1183.75 71.2875V69.75H1182.25V71.2875C1180.4 71.4757 1178.69 72.3428 1177.44 73.7212C1176.19 75.0996 1175.5 76.8914 1175.5 78.75V81.4395L1173.47 83.4697C1173.33 83.6104 1173.25 83.8011 1173.25 84V86.25C1173.25 86.4489 1173.33 86.6397 1173.47 86.7803C1173.61 86.921 1173.8 87 1174 87H1179.25V87.5828C1179.23 88.5343 1179.57 89.4585 1180.19 90.1781C1180.81 90.8977 1181.68 91.362 1182.62 91.482C1183.15 91.5337 1183.67 91.4757 1184.17 91.3117C1184.67 91.1478 1185.13 90.8815 1185.51 90.53C1185.9 90.1785 1186.21 89.7495 1186.43 89.2707C1186.64 88.792 1186.75 88.2739 1186.75 87.75V87H1192C1192.2 87 1192.39 86.921 1192.53 86.7803C1192.67 86.6397 1192.75 86.4489 1192.75 86.25V84C1192.75 83.8011 1192.67 83.6104 1192.53 83.4697ZM1185.25 87.75C1185.25 88.3467 1185.01 88.919 1184.59 89.341C1184.17 89.7629 1183.6 90 1183 90C1182.4 90 1181.83 89.7629 1181.41 89.341C1180.99 88.919 1180.75 88.3467 1180.75 87.75V87H1185.25V87.75ZM1191.25 85.5H1174.75V84.3105L1176.78 82.2803C1176.92 82.1396 1177 81.9489 1177 81.75V78.75C1177 77.1587 1177.63 75.6326 1178.76 74.5074C1179.88 73.3821 1181.41 72.75 1183 72.75C1184.59 72.75 1186.12 73.3821 1187.24 74.5074C1188.37 75.6326 1189 77.1587 1189 78.75V81.75C1189 81.9489 1189.08 82.1396 1189.22 82.2803L1191.25 84.3105V85.5Z" fill="black"/>
<circle cx="1187" cy="74" r="4" fill="#DB4444"/>
<path d="M1187.32 75.0398C1187.1 75.0398 1186.91 75.0043 1186.74 74.9332C1186.57 74.8613 1186.43 74.7633 1186.34 74.6392C1186.24 74.5152 1186.19 74.3745 1186.19 74.2173C1186.19 74.0961 1186.22 73.9848 1186.28 73.8835C1186.33 73.7812 1186.41 73.6965 1186.5 73.6293C1186.6 73.5611 1186.71 73.5175 1186.82 73.4986V73.4787C1186.67 73.4474 1186.54 73.3722 1186.45 73.2528C1186.35 73.1326 1186.3 72.9929 1186.3 72.8338C1186.3 72.6832 1186.35 72.5492 1186.43 72.4318C1186.52 72.3134 1186.64 72.2206 1186.8 72.1534C1186.95 72.0852 1187.12 72.0511 1187.32 72.0511C1187.52 72.0511 1187.69 72.0852 1187.85 72.1534C1188 72.2216 1188.12 72.3149 1188.21 72.4332C1188.3 72.5507 1188.34 72.6842 1188.34 72.8338C1188.34 72.9938 1188.29 73.1335 1188.19 73.2528C1188.1 73.3722 1187.97 73.4474 1187.82 73.4787V73.4986C1187.94 73.5175 1188.04 73.5611 1188.14 73.6293C1188.23 73.6965 1188.31 73.7812 1188.36 73.8835C1188.42 73.9848 1188.45 74.0961 1188.45 74.2173C1188.45 74.3745 1188.4 74.5152 1188.3 74.6392C1188.21 74.7633 1188.07 74.8613 1187.9 74.9332C1187.73 75.0043 1187.54 75.0398 1187.32 75.0398ZM1187.32 74.5881C1187.42 74.5881 1187.5 74.5705 1187.58 74.5355C1187.65 74.4995 1187.71 74.4503 1187.75 74.3878C1187.79 74.3243 1187.81 74.2514 1187.81 74.169C1187.81 74.0848 1187.79 74.0104 1187.75 73.946C1187.7 73.8807 1187.65 73.8295 1187.57 73.7926C1187.5 73.7547 1187.42 73.7358 1187.32 73.7358C1187.23 73.7358 1187.14 73.7547 1187.07 73.7926C1187 73.8295 1186.94 73.8807 1186.89 73.946C1186.85 74.0104 1186.83 74.0848 1186.83 74.169C1186.83 74.2514 1186.85 74.3243 1186.89 74.3878C1186.93 74.4503 1186.99 74.4995 1187.07 74.5355C1187.14 74.5705 1187.22 74.5881 1187.32 74.5881ZM1187.32 73.2884C1187.4 73.2884 1187.47 73.2718 1187.54 73.2386C1187.6 73.2055 1187.65 73.1596 1187.69 73.1009C1187.72 73.0421 1187.74 72.9744 1187.74 72.8977C1187.74 72.822 1187.72 72.7557 1187.69 72.6989C1187.65 72.6411 1187.6 72.5961 1187.54 72.5639C1187.48 72.5308 1187.4 72.5142 1187.32 72.5142C1187.24 72.5142 1187.17 72.5308 1187.1 72.5639C1187.04 72.5961 1186.99 72.6411 1186.95 72.6989C1186.92 72.7557 1186.9 72.822 1186.9 72.8977C1186.9 72.9744 1186.92 73.0421 1186.95 73.1009C1186.99 73.1596 1187.04 73.2055 1187.1 73.2386C1187.17 73.2718 1187.24 73.2884 1187.32 73.2884Z" fill="white"/>
<path d="M1217.58 84.4816C1216.16 85.324 1212.45 87.0441 1214.71 89.1966C1215.82 90.248 1217.05 91 1218.59 91H1227.41C1228.95 91 1230.18 90.248 1231.29 89.1966C1233.55 87.0441 1229.84 85.324 1228.42 84.4816C1225.1 82.5061 1220.9 82.5061 1217.58 84.4816Z" stroke="#141B34" stroke-width="1.5" stroke-linecap="round" stroke-linejoin="round"/>
<path d="M1227.5 75.5C1227.5 77.9853 1225.49 80 1223 80C1220.51 80 1218.5 77.9853 1218.5 75.5C1218.5 73.0147 1220.51 71 1223 71C1225.49 71 1227.5 73.0147 1227.5 75.5Z" stroke="#141B34" stroke-width="1.5"/>
<g filter="url(#filter0_i_43_246)">
<circle cx="1281" cy="84.5" r="30" fill="#F2F4F7"/>
</g>
<path d="M1287.25 92C1287.91 92 1288.55 92.2634 1289.02 92.7322C1289.49 93.2011 1289.75 93.837 1289.75 94.5C1289.75 95.163 1289.49 95.7989 1289.02 96.2678C1288.55 96.7366 1287.91 97 1287.25 97C1286.59 97 1285.95 96.7366 1285.48 96.2678C1285.01 95.7989 1284.75 95.163 1284.75 94.5C1284.75 93.1125 1285.86 92 1287.25 92ZM1267.25 72H1271.34L1272.51 74.5H1291C1291.33 74.5 1291.65 74.6317 1291.88 74.8661C1292.12 75.1005 1292.25 75.4185 1292.25 75.75C1292.25 75.9625 1292.19 76.175 1292.1 76.375L1287.62 84.4625C1287.2 85.225 1286.38 85.75 1285.44 85.75H1276.12L1275 87.7875L1274.96 87.9375C1274.96 88.0204 1275 88.0999 1275.05 88.1585C1275.11 88.2171 1275.19 88.25 1275.27 88.25H1289.75V90.75H1274.75C1274.09 90.75 1273.45 90.4866 1272.98 90.0178C1272.51 89.5489 1272.25 88.913 1272.25 88.25C1272.25 87.8125 1272.36 87.4 1272.55 87.05L1274.25 83.9875L1269.75 74.5H1267.25V72ZM1274.75 92C1275.41 92 1276.05 92.2634 1276.52 92.7322C1276.99 93.2011 1277.25 93.837 1277.25 94.5C1277.25 95.163 1276.99 95.7989 1276.52 96.2678C1276.05 96.7366 1275.41 97 1274.75 97C1274.09 97 1273.45 96.7366 1272.98 96.2678C1272.51 95.7989 1272.25 95.163 1272.25 94.5C1272.25 93.1125 1273.36 92 1274.75 92ZM1286 83.25L1289.48 77H1273.67L1276.62 83.25H1286Z" fill="#0D1216"/>
<circle cx="1302" cy="62.5" r="15" fill="#342CC0"/>
<path d="M1295.96 66.9432V64.5213L1302.03 54.9545H1304.12V58.3068H1302.88L1299.06 64.3651V64.4787H1307.68V66.9432H1295.96ZM1302.94 69.5V66.2045L1303 65.1321V54.9545H1305.88V69.5H1302.94Z" fill="#FCFDFD"/>
<defs>
<filter id="filter0_i_43_246" x="1251" y="54.5" width="62" height="68" filterUnits="userSpaceOnUse" color-interpolation-filters="sRGB">
<feFlood flood-opacity="0" result="BackgroundImageFix"/>
<feBlend mode="normal" in="SourceGraphic" in2="BackgroundImageFix" result="shape"/>
<feColorMatrix in="SourceAlpha" type="matrix" values="0 0 0 0 0 0 0 0 0 0 0 0 0 0 0 0 0 0 127 0" result="hardAlpha"/>
<feMorphology radius="1" operator="dilate" in="SourceAlpha" result="effect1_innerShadow_43_246"/>
<feOffset dx="2" dy="8"/>
<feGaussianBlur stdDeviation="8"/>
<feComposite in2="hardAlpha" operator="arithmetic" k2="-1" k3="1"/>
<feColorMatrix type="matrix" values="0 0 0 0 0 0 0 0 0 0 0 0 0 0 0 0 0 0 0.15 0"/>
<feBlend mode="normal" in2="shape" result="effect1_innerShadow_43_246"/>
</filter>
<clipPath id="clip0_43_246">
<rect width="24" height="24" fill="white" transform="translate(1131 69)"/>
</clipPath>
</defs>
</svg>
